<?xml version="1.0" standalone="no"?>
<!DOCTYPE svg PUBLIC "-//W3C//DTD SVG 20010904//EN"
 "http://www.w3.org/TR/2001/REC-SVG-20010904/DTD/svg10.dtd">
<svg version="1.0" xmlns="http://www.w3.org/2000/svg"
 width="1024.000000pt" height="1024.000000pt" viewBox="0 0 1024.000000 1024.000000"
 preserveAspectRatio="xMidYMid meet">
<metadata>
Created by potrace 1.14, written by Peter Selinger 2001-2017
</metadata>
<g transform="translate(0.000000,1024.000000) scale(0.100000,-0.100000)"
fill="#000000" stroke="none">
<path d="M5051 10227 c-6 -8 -56 -37 -111 -66 -114 -59 -332 -185 -495 -287
-60 -37 -139 -84 -175 -104 -36 -20 -81 -46 -100 -57 -53 -31 -366 -211 -440
-253 -36 -20 -87 -49 -115 -65 -27 -15 -66 -38 -85 -50 -19 -12 -172 -101
-340 -197 -168 -96 -347 -201 -398 -232 -51 -31 -116 -68 -145 -82 -29 -15
-78 -44 -109 -65 -31 -22 -59 -39 -62 -39 -3 0 -38 -19 -78 -43 -111 -67 -250
-148 -283 -167 -16 -10 -70 -41 -120 -70 -134 -78 -270 -157 -355 -205 -41
-23 -121 -70 -178 -104 -56 -33 -104 -61 -106 -61 -3 0 -44 -23 -93 -52 -48
-28 -128 -73 -178 -101 -162 -89 -174 -96 -278 -165 -77 -52 -106 -78 -120
-106 -16 -36 -17 -167 -17 -2544 0 -1515 4 -2523 9 -2547 11 -45 46 -80 119
-116 26 -13 65 -35 87 -50 22 -15 114 -66 205 -114 91 -49 206 -113 255 -143
107 -66 236 -141 325 -192 36 -20 83 -47 105 -60 22 -13 65 -36 95 -53 30 -17
66 -38 80 -47 25 -17 54 -34 205 -118 44 -24 124 -71 177 -103 54 -32 100 -59
103 -59 3 0 39 -22 80 -49 109 -73 197 -118 218 -114 10 3 22 16 28 29 5 16 9
984 9 2527 0 1708 3 2514 11 2540 5 20 20 43 32 51 118 71 456 266 462 266 2
0 43 23 92 51 48 29 126 72 173 97 47 25 126 70 175 101 50 31 124 74 165 95
41 22 86 47 100 56 47 33 279 169 460 270 57 32 214 124 556 326 117 69 116
69 161 46 69 -35 216 -116 303 -167 30 -18 89 -52 130 -76 41 -24 87 -50 101
-59 14 -8 66 -37 115 -64 49 -27 129 -73 177 -103 49 -29 91 -53 94 -53 3 0
17 -8 31 -19 15 -10 43 -27 62 -38 88 -49 237 -137 260 -152 14 -9 54 -32 90
-51 36 -18 97 -52 135 -75 39 -23 126 -74 195 -112 69 -39 186 -105 260 -148
74 -42 160 -91 190 -108 83 -46 160 -106 170 -131 11 -29 16 -4150 5 -4224 -7
-46 -14 -58 -55 -95 -26 -23 -64 -51 -86 -63 -59 -32 -99 -55 -219 -129 -179
-110 -275 -149 -275 -112 0 6 1 446 2 977 3 1378 -2 3168 -8 3215 -13 88 -53
127 -235 230 -68 38 -142 81 -164 96 -22 14 -76 45 -120 69 -44 23 -127 71
-185 105 -58 34 -132 77 -165 94 -32 18 -71 41 -86 52 -15 10 -30 19 -34 19
-3 0 -95 53 -204 119 -255 153 -494 281 -527 281 -14 0 -73 -28 -132 -63 -59
-35 -136 -79 -172 -97 -36 -19 -83 -46 -105 -61 -119 -78 -404 -244 -755 -439
-142 -79 -265 -151 -358 -208 -46 -29 -86 -52 -89 -52 -18 0 -77 -58 -90 -87
-29 -70 -24 -5046 5 -5103 19 -37 163 -135 312 -214 30 -16 91 -50 135 -76 44
-26 105 -61 135 -77 56 -31 153 -86 180 -103 103 -64 226 -136 330 -193 30
-17 66 -37 80 -46 14 -9 50 -30 80 -46 30 -15 87 -50 125 -75 39 -26 102 -63
142 -83 39 -20 74 -41 78 -47 8 -13 202 -13 210 0 3 5 36 25 73 45 102 53 139
88 156 146 13 43 15 378 16 2561 0 1859 -3 2527 -11 2570 -10 50 -18 64 -54
96 -24 20 -65 48 -92 62 -26 13 -75 42 -107 62 -33 21 -68 38 -79 38 -33 0
-257 -131 -308 -180 l-46 -45 -6 -90 c-3 -49 -4 -898 -3 -1885 2 -1761 -2
-2352 -16 -2365 -10 -10 -38 1 -104 41 -32 20 -84 50 -114 67 -30 16 -80 46
-110 67 -30 20 -106 63 -168 95 -62 32 -118 68 -125 79 -9 16 -13 508 -15
2086 -2 1136 0 2094 3 2130 6 56 11 69 41 97 19 17 82 58 141 91 242 134 373
209 471 269 151 93 325 183 356 183 32 0 138 -47 198 -87 24 -17 106 -65 183
-108 77 -42 152 -86 167 -96 14 -11 53 -33 85 -50 124 -65 295 -174 324 -206
l29 -34 0 -2510 c0 -2748 -4 -2569 56 -2569 14 0 91 39 172 86 81 48 176 103
212 124 36 20 142 82 235 137 94 55 190 112 215 125 25 14 101 59 170 100 69
41 152 89 185 107 131 72 336 188 452 258 68 40 151 87 185 104 115 58 166 96
190 141 l22 43 3 2080 c4 2327 -2 2950 -30 3003 -19 34 -112 99 -292 202 -34
19 -191 111 -400 235 -77 46 -171 100 -210 120 -38 21 -103 58 -142 82 -40 23
-75 43 -77 43 -2 0 -74 43 -160 95 -86 52 -158 95 -161 95 -2 0 -55 31 -117
69 -62 37 -141 82 -176 100 -34 17 -117 65 -185 105 -125 76 -287 170 -367
214 -25 14 -70 39 -100 57 -222 130 -270 157 -395 225 -44 24 -106 61 -137 82
-31 21 -76 43 -101 50 -58 15 -90 3 -262 -98 -71 -42 -164 -94 -205 -116 -41
-22 -79 -43 -85 -48 -15 -12 -226 -140 -231 -140 -2 0 -21 -11 -42 -24 -71
-44 -523 -305 -622 -358 -91 -49 -141 -77 -170 -97 -14 -10 -90 -55 -170 -101
-80 -45 -184 -107 -232 -136 -48 -30 -90 -54 -92 -54 -3 0 -52 -29 -109 -64
-58 -35 -136 -81 -173 -101 -38 -21 -114 -66 -169 -100 -55 -34 -127 -77 -160
-95 -33 -18 -118 -69 -189 -112 -71 -43 -132 -78 -136 -78 -20 0 -59 -61 -69
-108 -8 -38 -11 -651 -11 -2133 0 -1724 -2 -2081 -13 -2085 -14 -5 -158 70
-277 143 -36 22 -94 55 -130 73 -113 56 -176 98 -191 127 -12 24 -14 329 -17
2098 -2 1435 1 2091 8 2140 6 38 18 78 27 88 19 20 139 92 323 192 69 38 168
94 220 125 52 31 120 70 150 86 30 16 91 51 135 78 44 27 139 82 210 121 72
39 148 82 170 95 22 13 79 45 126 71 48 26 131 74 185 106 191 114 420 247
499 288 44 23 109 60 145 83 36 22 115 69 175 103 61 34 139 80 175 102 107
66 277 165 418 244 74 41 170 97 214 125 45 27 95 58 112 68 17 9 112 65 211
124 191 113 216 121 270 88 17 -10 89 -49 160 -87 72 -37 153 -82 180 -100
113 -71 373 -224 475 -278 41 -22 86 -47 100 -57 43 -29 171 -105 255 -150 44
-24 91 -51 105 -60 31 -22 360 -210 367 -210 3 0 18 -10 35 -21 16 -12 89 -54
161 -94 73 -39 177 -99 232 -132 172 -104 337 -199 430 -250 50 -27 110 -62
135 -78 25 -16 68 -41 95 -55 139 -74 218 -118 295 -165 47 -29 123 -73 170
-97 47 -25 101 -54 120 -66 39 -24 132 -76 199 -113 25 -13 67 -45 95 -70 l51
-47 3 -2512 c2 -2784 -3 -2570 66 -2570 31 0 129 45 196 90 14 9 61 36 105 60
155 83 282 161 307 188 54 57 51 -82 50 2622 0 1632 -4 2524 -11 2541 -5 14
-22 36 -38 48 -44 35 -189 126 -283 177 -100 56 -625 358 -755 434 -138 82
-443 259 -605 351 -80 45 -174 100 -210 122 -69 42 -265 157 -340 199 -93 53
-308 177 -395 228 -49 29 -119 69 -155 88 -36 19 -84 48 -107 64 -23 15 -45
28 -48 28 -4 0 -19 8 -33 18 -15 10 -67 40 -117 66 -49 27 -171 96 -270 155
-99 59 -225 134 -280 166 -55 32 -149 88 -210 124 -60 37 -153 89 -205 115
-52 27 -113 61 -135 76 -22 14 -77 47 -122 73 -67 38 -91 47 -131 47 -29 0
-54 -6 -61 -13z"/>
<path d="M8861 1056 c-20 -24 8 -31 30 -7 19 21 19 21 1 21 -11 0 -25 -6 -31
-14z"/>
<path d="M9564 957 c-9 -24 1 -260 11 -264 6 -2 10 48 10 137 0 126 -6 164
-21 127z"/>
<path d="M8597 24 c-16 -17 0 -19 133 -19 89 0 139 4 137 10 -4 11 -259 20
-270 9z"/>
</g>
</svg>
